<?xml version="1.0" standalone="no"?>
<!DOCTYPE svg PUBLIC "-//W3C//DTD SVG 20010904//EN"
 "http://www.w3.org/TR/2001/REC-SVG-20010904/DTD/svg10.dtd">
<svg version="1.0" xmlns="http://www.w3.org/2000/svg"
 width="141.000000pt" height="96.000000pt" viewBox="0 0 141.000000 96.000000"
 preserveAspectRatio="xMidYMid meet">
<metadata>
Created by potrace 1.10, written by Peter Selinger 2001-2011
</metadata>
<g transform="translate(0.000000,96.000000) scale(0.100000,-0.100000)"
fill="#000000" stroke="none">
<path d="M910 857 c-54 -13 -89 -13 -372 -2 -177 7 -222 6 -250 -6 -22 -9 -63
-13 -126 -12 -76 3 -94 0 -99 -12 -8 -22 2 -28 55 -35 l47 -5 6 -200 c4 -110
11 -258 17 -329 11 -152 9 -166 -27 -166 -35 0 -55 -14 -48 -34 5 -13 26 -15
154 -11 81 2 245 4 363 3 428 -2 700 0 716 6 12 5 13 10 3 28 -7 13 -16 26
-22 29 -6 4 -10 126 -11 312 -1 282 -2 306 -20 325 -18 20 -17 22 18 58 58 60
46 64 -173 63 -102 -1 -206 -6 -231 -12z m342 -92 c13 -41 17 -102 19 -345 l3
-295 -35 -17 c-30 -15 -56 -16 -214 -10 -248 10 -592 9 -697 -2 -73 -7 -88 -7
-88 5 0 8 -3 163 -6 346 l-5 332 22 12 c16 8 107 11 328 9 168 -1 353 2 411 8
58 5 137 9 175 8 l70 -1 17 -50z"/>
<path d="M938 661 c-52 -52 -60 -84 -26 -102 18 -10 24 -8 39 10 9 11 27 21
38 21 17 0 21 -6 21 -30 0 -27 -3 -30 -30 -30 l-30 0 -2 -77 c0 -43 0 -85 1
-93 1 -8 3 -35 4 -60 2 -43 3 -45 36 -48 19 -2 45 -1 58 3 23 5 24 9 18 43 -8
43 -18 57 -35 47 -8 -5 -8 -11 2 -22 11 -14 10 -15 -12 -8 -43 13 -48 18 -39
43 7 18 14 21 34 16 29 -7 29 -9 25 98 -2 64 1 79 14 84 17 7 23 74 7 74 -5 0
-13 10 -17 23 -8 27 -33 57 -48 56 -6 0 -32 -22 -58 -48z"/>
<path d="M424 629 l-25 -26 6 -148 c9 -189 26 -224 111 -225 70 0 74 11 74
202 0 93 -5 179 -11 196 -11 31 -12 31 -70 29 -50 -2 -64 -6 -85 -28z m128
-27 c8 -8 7 -37 -1 -100 -6 -48 -11 -113 -11 -143 -1 -52 -16 -89 -37 -89 -26
0 -40 36 -37 93 3 33 0 57 -6 57 -11 0 -8 85 5 113 4 11 3 23 -4 30 -6 6 -11
22 -11 35 0 23 3 24 46 19 25 -2 50 -9 56 -15z"/>
<path d="M690 500 c-11 -7 -16 -34 -18 -112 -1 -57 1 -109 6 -117 11 -15 89
-26 126 -17 26 6 26 7 26 109 0 129 -10 147 -78 147 -26 0 -54 -5 -62 -10z
m84 -40 c24 -9 26 -14 26 -72 0 -35 -4 -68 -8 -74 -9 -14 -71 -29 -73 -17 -5
24 -6 159 -2 166 6 10 27 9 57 -3z"/>
</g>
</svg>
