<?xml version="1.0" standalone="no"?>
<!DOCTYPE svg PUBLIC "-//W3C//DTD SVG 20010904//EN"
 "http://www.w3.org/TR/2001/REC-SVG-20010904/DTD/svg10.dtd">
<svg version="1.0" xmlns="http://www.w3.org/2000/svg"
 width="87.000000pt" height="120.000000pt" viewBox="0 0 87.000000 120.000000"
 preserveAspectRatio="xMidYMid meet">
<metadata>
Created by potrace 1.10, written by Peter Selinger 2001-2011
</metadata>
<g transform="translate(0.000000,120.000000) scale(0.100000,-0.100000)"
fill="#000000" stroke="none">
<path d="M523 1171 c-10 -26 -8 -32 17 -56 18 -17 26 -34 23 -44 -10 -27 -45
-61 -64 -61 -27 0 -134 -105 -181 -177 -31 -49 -51 -69 -80 -80 -56 -22 -62
-58 -17 -95 31 -26 58 -41 159 -84 19 -9 48 -22 63 -30 16 -8 36 -14 46 -14 9
0 26 -6 36 -14 22 -16 41 -11 72 17 19 17 22 30 21 76 -1 35 5 68 15 88 10 18
17 55 17 83 0 33 4 50 13 50 20 0 39 -69 44 -154 4 -68 1 -87 -18 -125 -43
-88 -134 -141 -216 -127 -21 4 -55 9 -75 12 -21 3 -42 12 -49 20 -6 8 -17 14
-25 14 -15 0 -101 55 -127 82 -23 23 -29 23 -61 -7 -33 -30 -33 -49 0 -92 27
-35 123 -103 146 -103 7 0 32 -7 55 -16 44 -17 55 -37 28 -48 -8 -3 -15 -17
-15 -31 0 -15 -5 -36 -12 -48 -6 -12 -14 -38 -18 -57 l-5 -35 -75 -8 c-41 -4
-105 -5 -141 -2 -89 8 -99 3 -99 -50 0 -30 5 -45 16 -49 28 -11 814 -7 814 4
0 6 9 10 20 10 17 0 20 7 20 45 l0 45 -94 0 c-107 0 -126 10 -126 65 0 18 -8
48 -17 67 -9 18 -20 41 -24 50 -7 13 2 23 41 47 27 17 67 48 87 70 87 91 97
117 96 255 0 82 -5 119 -17 141 -9 17 -16 36 -16 43 0 6 -3 12 -8 12 -4 0 -16
16 -27 36 -10 19 -34 48 -52 64 -18 16 -33 34 -33 40 0 13 -37 13 -45 0 -10
-16 -37 -12 -51 8 -26 35 38 71 66 37 16 -19 38 -19 83 0 62 26 53 54 -29 95
-21 11 -47 20 -57 20 -10 0 -21 9 -24 20 -4 16 -14 20 -47 20 -37 0 -43 -3
-53 -29z m87 -26 c7 -8 18 -15 25 -15 7 0 18 -7 25 -15 7 -8 21 -15 31 -15 11
0 19 -7 19 -15 0 -22 -29 -18 -75 11 -22 13 -48 27 -57 30 -10 4 -18 13 -18
20 0 19 34 18 50 -1z m-16 -203 c28 -42 34 -92 14 -139 -6 -15 -14 -55 -17
-88 -6 -57 -8 -60 -34 -63 -16 -2 -38 3 -50 11 -12 7 -35 17 -52 21 -44 11
-135 56 -135 67 0 26 143 189 166 189 6 0 21 9 34 20 32 28 44 25 74 -18z m85
6 c5 -13 17 -32 28 -43 35 -40 63 -84 63 -103 0 -10 7 -27 15 -38 10 -13 14
-45 15 -100 0 -70 -4 -88 -30 -140 -28 -56 -111 -144 -136 -144 -6 0 -17 -7
-24 -15 -10 -12 -36 -15 -113 -15 -90 0 -106 3 -164 30 -34 16 -70 30 -78 30
-8 0 -15 4 -15 9 0 5 -16 18 -35 30 -32 19 -45 48 -29 64 4 3 28 -12 53 -33
26 -22 54 -40 63 -40 9 0 21 -7 28 -15 7 -8 22 -15 34 -15 11 -1 32 -7 46 -15
37 -21 148 -19 190 3 66 34 81 47 114 97 46 71 63 149 46 223 -14 67 -35 113
-71 162 -34 45 -45 90 -24 90 9 0 19 -10 24 -22z m-362 -252 c15 -8 46 -22 68
-31 22 -10 53 -24 68 -31 16 -8 37 -14 47 -14 26 0 91 -40 84 -51 -8 -14 -59
-11 -91 5 -15 8 -48 22 -73 31 -25 9 -52 21 -60 26 -8 5 -22 12 -30 15 -67 28
-90 41 -90 52 0 16 42 15 77 -2z m248 -396 c9 -10 20 -41 23 -67 2 -26 11 -57
18 -68 8 -11 14 -27 14 -37 0 -16 -12 -18 -128 -18 -71 0 -132 3 -135 7 -4 3
-1 13 7 22 12 14 27 64 43 143 5 25 9 27 67 31 33 2 64 4 67 5 3 1 14 -7 24
-18z m265 -249 l0 -29 -387 -4 c-214 -2 -396 -2 -406 0 -12 3 -17 12 -15 26 2
16 9 20 28 18 74 -8 276 1 289 13 2 2 113 4 247 5 l244 0 0 -29z"/>
<path d="M427 854 c-17 -18 -3 -25 43 -22 28 2 51 8 53 13 2 11 -85 20 -96 9z"/>
<path d="M456 221 c-7 -11 17 -21 50 -21 15 0 24 6 24 15 0 17 -65 22 -74 6z"/>
</g>
</svg>
