<?xml version="1.0" standalone="no"?>
<!DOCTYPE svg PUBLIC "-//W3C//DTD SVG 20010904//EN"
 "http://www.w3.org/TR/2001/REC-SVG-20010904/DTD/svg10.dtd">
<svg version="1.0" xmlns="http://www.w3.org/2000/svg"
 width="132.000000pt" height="108.000000pt" viewBox="0 0 132.000000 108.000000"
 preserveAspectRatio="xMidYMid meet">
<metadata>
Created by potrace 1.10, written by Peter Selinger 2001-2011
</metadata>
<g transform="translate(0.000000,108.000000) scale(0.100000,-0.100000)"
fill="#000000" stroke="none">
<path d="M856 999 c-22 -5 -45 -14 -52 -20 -7 -6 -23 -12 -36 -13 -13 -2 -45
-10 -73 -19 -27 -9 -70 -21 -95 -27 -25 -7 -60 -18 -78 -26 -18 -8 -40 -14
-50 -14 -9 0 -30 -7 -46 -15 -15 -8 -40 -15 -55 -15 -14 -1 -37 -7 -51 -15
-14 -8 -34 -14 -45 -15 -11 0 -37 -9 -58 -20 -20 -11 -45 -20 -54 -20 -32 0
-84 -40 -99 -75 -12 -29 -12 -44 -3 -81 8 -30 10 -89 6 -169 -7 -133 -6 -137
50 -177 93 -67 155 -118 221 -181 69 -66 74 -69 110 -63 20 4 53 13 72 20 19
7 100 34 180 60 80 26 153 51 162 56 10 6 25 10 34 10 9 0 28 6 42 14 15 8 61
25 102 37 41 13 82 29 91 36 8 7 26 13 38 13 12 0 40 9 62 21 l40 20 -8 67
c-9 73 -7 320 3 365 5 23 -1 34 -33 65 -21 20 -74 57 -117 82 -114 65 -114 65
-133 83 -24 21 -79 28 -127 16z m169 -133 c39 -25 75 -46 80 -46 6 -1 28 -16
49 -35 34 -29 38 -35 27 -49 -8 -9 -20 -16 -29 -16 -9 0 -44 -10 -78 -21 -37
-12 -73 -19 -88 -15 -21 5 -66 40 -210 162 -26 22 -27 27 -15 40 20 19 93 34
149 29 34 -3 65 -16 115 -49z m-298 -51 c15 -20 70 -72 121 -116 l92 -80 0
-169 0 -169 -26 -20 c-15 -12 -37 -21 -50 -21 -12 0 -26 -4 -29 -10 -10 -16
-42 -12 -49 6 -3 9 -6 77 -6 152 0 116 -3 141 -18 165 -24 36 -129 125 -214
183 -38 25 -68 51 -68 59 0 17 111 53 172 54 43 1 50 -2 75 -34z m-231 -114
c45 -38 101 -81 124 -96 48 -30 50 -56 5 -65 -17 -4 -40 -12 -52 -18 -12 -7
-30 -12 -41 -12 -11 0 -25 -7 -32 -15 -6 -7 -31 -17 -55 -21 l-44 -6 -83 84
c-46 47 -98 97 -117 112 -28 22 -33 31 -24 44 5 10 25 20 44 23 19 4 59 14 89
22 89 25 97 23 186 -52z m694 -54 c0 -27 -76 -81 -119 -84 -14 -1 -37 -4 -51
-5 -16 -2 -25 2 -28 14 -5 25 32 56 83 69 25 6 48 15 51 20 3 5 18 9 35 9 24
0 29 -4 29 -23z m-899 -148 c7 -15 6 -19 -5 -19 -15 0 -106 97 -106 113 0 13
99 -72 111 -94z m897 48 c2 -9 -8 -27 -22 -40 -32 -30 -32 -35 -3 -39 18 -2
21 -8 19 -35 -2 -19 1 -33 7 -33 24 0 9 -29 -28 -55 -76 -52 -171 -72 -171
-37 0 26 58 75 89 77 71 3 82 6 76 16 -4 6 -30 9 -58 8 -42 -3 -53 0 -55 14
-3 14 4 17 33 17 25 0 35 4 32 13 -2 6 -20 12 -40 12 -46 1 -66 17 -47 40 7 8
18 15 25 15 7 0 23 9 37 19 22 18 68 30 93 26 6 -1 11 -9 13 -18z m-991 -27
c19 -21 56 -53 83 -71 34 -22 51 -40 55 -61 6 -27 8 -28 21 -11 12 16 13 15
14 -14 0 -22 -5 -33 -14 -33 -27 0 -28 -20 -2 -30 26 -9 44 -50 31 -69 -10
-17 -72 -13 -89 5 -21 20 -21 83 -1 90 11 5 3 14 -28 34 -24 15 -53 40 -65 56
-21 27 -23 28 -36 11 -17 -21 -46 -13 -46 14 0 10 5 19 10 19 15 0 12 21 -6
41 -12 14 -13 22 -4 38 16 31 39 26 77 -19z m507 -55 c-4 -18 -1 -27 10 -31
19 -7 21 -44 4 -66 -22 -26 -61 -48 -88 -48 -14 0 -35 -6 -46 -14 -11 -8 -33
-16 -49 -18 -46 -5 -43 -28 4 -28 48 0 55 -15 11 -23 -21 -5 -30 -12 -30 -27
0 -26 14 -25 51 1 16 11 36 18 44 15 7 -2 25 4 38 15 29 22 57 25 75 7 31 -31
0 -64 -78 -87 -25 -7 -57 -19 -72 -27 -14 -8 -35 -14 -46 -14 -12 0 -24 -4
-27 -10 -9 -14 -73 -12 -78 2 -6 20 21 55 49 62 14 4 22 11 19 16 -10 16 -47
11 -61 -7 -9 -14 -16 -15 -24 -7 -21 21 -7 49 28 54 42 6 42 24 0 30 -25 4
-34 11 -36 28 -4 30 24 62 54 62 29 0 54 10 54 21 0 5 -10 9 -22 9 -42 0 -52
15 -24 33 14 10 31 17 39 17 7 0 17 4 23 9 16 16 117 49 152 50 30 1 32 -1 26
-24z m-503 -102 c29 -19 39 -32 37 -47 -5 -34 -39 -30 -82 9 -32 29 -36 37
-26 50 17 20 24 19 71 -12z"/>
<path d="M618 426 c-15 -8 -42 -16 -60 -18 -18 -2 -32 -7 -31 -13 4 -16 54
-18 71 -2 10 9 30 17 46 19 32 3 49 28 19 28 -10 0 -30 -7 -45 -14z"/>
</g>
</svg>
