<?xml version="1.0" standalone="no"?>
<!DOCTYPE svg PUBLIC "-//W3C//DTD SVG 20010904//EN"
 "http://www.w3.org/TR/2001/REC-SVG-20010904/DTD/svg10.dtd">
<svg version="1.0" xmlns="http://www.w3.org/2000/svg"
 width="150.000000pt" height="81.000000pt" viewBox="0 0 150.000000 81.000000"
 preserveAspectRatio="xMidYMid meet">
<metadata>
Created by potrace 1.10, written by Peter Selinger 2001-2011
</metadata>
<g transform="translate(0.000000,81.000000) scale(0.100000,-0.100000)"
fill="#000000" stroke="none">
<path d="M255 795 c-7 -10 -33 -18 -80 -22 -57 -5 -77 -11 -111 -37 -59 -44
-67 -79 -60 -267 10 -277 11 -282 65 -338 41 -42 53 -48 101 -54 77 -9 252 -8
334 3 l69 8 42 -34 c23 -19 49 -34 58 -34 9 0 19 -4 22 -10 3 -5 35 -10 71
-10 64 0 64 0 64 29 0 16 -7 34 -15 41 -25 21 -17 37 29 54 25 9 50 24 56 32
7 7 23 14 37 14 21 0 69 24 83 41 17 21 51 26 130 19 47 -5 120 -6 162 -3 65
5 82 10 112 35 19 15 37 42 41 58 4 17 13 30 21 30 12 0 14 31 14 180 0 121
-4 180 -11 180 -6 0 -21 13 -35 29 -14 17 -38 31 -59 35 -21 4 -35 13 -35 21
0 13 -35 15 -229 15 -215 0 -229 -1 -234 -19 -3 -12 -17 -21 -40 -25 -44 -8
-127 11 -127 30 0 22 -461 20 -475 -1z m412 -44 c12 -6 40 -11 62 -11 21 0 46
-3 55 -6 18 -7 21 -45 6 -60 -6 -6 -12 -31 -13 -55 -4 -62 -12 -72 -56 -66
-36 6 -234 -23 -247 -35 -14 -15 70 -19 148 -9 46 7 97 13 113 14 l30 2 -3
-79 c-3 -89 12 -123 71 -161 45 -30 53 -47 37 -84 l-12 -31 -114 0 c-63 0
-114 -4 -114 -9 0 -12 37 -21 93 -21 l47 0 0 -55 c0 -30 -4 -55 -9 -55 -22 0
-108 47 -139 77 -16 15 -24 16 -267 17 -147 1 -197 4 -220 16 -45 23 -77 97
-87 205 -20 202 -20 226 -7 273 13 47 48 92 73 92 8 0 30 7 49 15 20 8 65 15
99 15 35 1 92 6 128 13 79 15 248 14 277 -2z m532 -5 c15 -13 24 -15 38 -8 10
6 48 8 83 5 57 -5 69 -10 103 -41 l37 -36 0 -98 c0 -65 -5 -111 -15 -135 -8
-19 -15 -50 -15 -67 0 -66 -75 -99 -192 -85 -145 16 -178 13 -227 -26 -24 -19
-47 -32 -51 -30 -5 3 -9 69 -9 148 0 78 -1 153 -3 167 -3 24 -1 25 41 22 24
-2 55 -1 69 3 41 10 11 26 -52 26 -65 1 -86 16 -86 60 0 20 -9 38 -27 53 l-27
24 39 20 c35 18 55 20 157 18 96 -2 121 -6 137 -20z m-339 -70 c5 -13 14 -27
20 -31 8 -5 11 -35 9 -86 -2 -52 1 -83 9 -91 14 -14 16 -54 3 -62 -5 -4 -3
-18 5 -35 10 -20 12 -39 6 -67 -8 -35 -9 -37 -16 -16 -5 14 -18 25 -37 29 -23
4 -29 11 -29 32 0 15 -5 32 -10 37 -6 6 -11 28 -13 49 -2 34 1 39 23 45 l25 6
-23 13 c-18 9 -21 17 -16 34 4 12 8 45 9 72 2 28 3 60 4 73 1 29 19 28 31 -2z"/>
<path d="M495 670 c-11 -4 -33 -13 -50 -20 -44 -17 -13 -31 55 -24 65 6 177
23 205 32 18 5 18 6 -5 13 -35 10 -181 10 -205 -1z"/>
<path d="M563 448 c-51 -25 -19 -38 84 -35 77 2 103 12 57 22 -16 4 -39 11
-52 16 -29 12 -61 11 -89 -3z"/>
<path d="M567 314 c-20 -21 38 -32 91 -17 18 4 20 8 10 14 -15 10 -92 12 -101
3z"/>
<path d="M602 236 c-35 -13 -71 -30 -80 -39 -15 -16 -13 -17 25 -17 23 0 45 5
48 10 3 6 16 10 29 10 12 0 27 5 32 10 6 6 42 13 80 16 87 7 108 14 74 24 -50
16 -144 9 -208 -14z"/>
<path d="M964 699 c-7 -13 13 -29 36 -28 38 1 93 15 89 23 -6 13 -117 18 -125
5z"/>
<path d="M1135 670 c-4 -6 6 -10 22 -10 22 0 25 2 13 10 -19 12 -27 12 -35 0z"/>
<path d="M1095 590 c-9 -15 4 -30 25 -30 24 0 36 20 19 31 -19 12 -36 11 -44
-1z"/>
<path d="M1003 353 c-7 -2 -13 -11 -13 -19 0 -17 85 -20 96 -3 13 22 -46 38
-83 22z"/>
</g>
</svg>
