<?xml version="1.0" standalone="no"?>
<!DOCTYPE svg PUBLIC "-//W3C//DTD SVG 20010904//EN"
 "http://www.w3.org/TR/2001/REC-SVG-20010904/DTD/svg10.dtd">
<svg version="1.0" xmlns="http://www.w3.org/2000/svg"
 width="63.000000pt" height="87.000000pt" viewBox="0 0 63.000000 87.000000"
 preserveAspectRatio="xMidYMid meet">
<metadata>
Created by potrace 1.10, written by Peter Selinger 2001-2011
</metadata>
<g transform="translate(0.000000,87.000000) scale(0.100000,-0.100000)"
fill="#000000" stroke="none">
<path d="M22 853 c2 -13 14 -18 45 -20 22 0 50 -6 61 -12 27 -14 76 -14 179 1
45 7 85 10 87 7 3 -2 0 -37 -5 -77 -9 -67 -9 -73 13 -103 22 -30 25 -31 73
-24 28 3 64 7 80 8 l30 2 2 -292 c2 -204 -1 -294 -9 -299 -10 -7 -52 -9 -360
-18 -81 -2 -151 -7 -157 -10 -5 -3 -16 -3 -24 0 -12 4 -15 19 -12 58 3 67 19
96 50 96 34 0 31 16 -3 23 -28 6 -29 8 -29 69 -1 35 3 71 9 81 6 12 6 23 -2
33 -7 7 -9 21 -6 30 5 14 6 188 2 338 -1 51 -17 70 -32 39 -5 -10 -10 -190
-12 -400 l-3 -383 288 0 c210 0 296 3 316 13 l27 12 0 323 c0 259 -3 322 -13
322 -7 0 -24 15 -37 32 -13 18 -50 57 -82 87 -32 30 -58 61 -58 68 0 10 -45
13 -211 13 -195 0 -210 -1 -207 -17z m466 -112 c23 -28 42 -52 42 -55 0 -3
-20 -6 -45 -6 -45 0 -45 0 -45 36 0 19 -5 44 -10 55 -21 38 14 20 58 -30z"/>
<path d="M115 670 c-3 -6 1 -13 10 -16 19 -8 30 0 20 15 -8 14 -22 14 -30 1z"/>
<path d="M110 550 c-13 -9 -12 -12 4 -25 35 -26 66 -14 66 26 0 12 -51 11 -70
-1z"/>
<path d="M97 464 c-4 -4 -7 -16 -7 -26 0 -13 7 -18 26 -18 21 0 25 4 22 22 -3
23 -27 35 -41 22z"/>
<path d="M91 371 c-18 -12 11 -28 66 -37 30 -4 44 -2 56 11 10 9 15 21 12 26
-8 11 -115 12 -134 0z"/>
<path d="M170 267 c-14 -6 -27 -13 -30 -15 -10 -7 27 -22 58 -22 28 0 32 3 32
25 0 28 -18 31 -60 12z"/>
<path d="M140 145 c0 -8 7 -15 15 -15 8 0 15 7 15 15 0 8 -7 15 -15 15 -8 0
-15 -7 -15 -15z"/>
</g>
</svg>
